<svg width="1440" height="900" viewBox="0 0 1440 900" fill="none" xmlns="http://www.w3.org/2000/svg">
<g clip-path="url(#clip0_7_2)">
<path d="M1448.54 1.5H-1.47673V901.5H1448.54V1.5Z" fill="#B6E4F5"/>
<path d="M1442 273.971V682.758L1441.4 680.186C1441.25 679.454 1441.04 679.433 1440.77 680.123L1403.95 779.628C1399.72 769.697 1395.86 760.371 1392.41 751.652C1390.3 746.321 1383.22 743.247 1378.43 747.115C1376.53 748.641 1375.11 750.67 1374.15 753.2C1362.3 784.625 1349.96 817.682 1337.1 852.412C1334.17 860.336 1337.18 868.95 1344.73 870.038C1346.71 870.33 1348.59 870.456 1350.34 870.435C1358.95 870.31 1366.66 870.121 1373.44 869.891L1373.34 899.77L1297.47 899.477C1296.38 895.567 1294.35 892.807 1291.35 891.177C1290.63 890.779 1290.28 890.131 1290.28 889.19L1290.33 871.522C1290.35 870.749 1290.07 870.142 1289.5 869.703L1288.78 869.139C1288.24 868.72 1287.96 868.114 1287.96 867.32V796.125C1287.96 795.393 1288.15 794.724 1288.54 794.16C1289.63 792.55 1290.38 790.731 1290.8 788.703C1290.94 788.013 1291.28 787.406 1291.71 786.925C1294.68 783.705 1298.29 780.423 1299.03 775.384C1300.13 767.836 1301.24 760.329 1302.35 752.907C1302.49 751.987 1302.22 751.046 1301.68 750.398L1291.38 738.333C1288.75 735.239 1284.52 735.26 1281.91 738.354L1271.56 750.607C1270.96 751.318 1270.7 752.342 1270.87 753.325C1272.08 760.037 1273.17 767.104 1274.17 774.526C1274.91 780.067 1278 783.078 1281.29 786.465C1281.79 786.988 1282.14 787.615 1282.33 788.368C1282.87 790.501 1283.68 792.383 1284.79 793.993C1285.21 794.599 1285.42 795.31 1285.42 796.125V867.675C1285.43 868.511 1285.08 868.971 1284.36 869.076C1284.07 869.118 1283.77 869.222 1283.5 869.41C1282.93 869.808 1282.56 870.56 1282.57 871.355L1282.61 889.483C1282.61 890.215 1282.33 890.737 1281.77 891.051C1278.65 892.703 1276.51 895.525 1275.36 899.561L1226.23 899.895L1226.12 855.046C1239.12 855.318 1251.72 855.464 1263.94 855.464C1278.28 855.485 1285.4 843.086 1279.31 826.819C1261.45 779.126 1244.07 732.5 1227.16 686.961C1224.11 678.743 1221.11 669.962 1212.42 668.812C1204.44 667.745 1198.72 672.094 1195.28 681.838C1190.49 695.408 1182.37 717.132 1170.9 747.011C1165.97 744.857 1161.94 744.899 1158.76 747.178C1156.81 748.558 1155.43 750.377 1154.59 752.635C1141.66 787.03 1129.54 819.543 1118.19 850.174C1115.15 858.371 1115.73 864.141 1119.92 867.487C1122.15 869.264 1125.89 870.205 1131.11 870.351C1138.41 870.54 1145.69 870.519 1152.94 870.289L1153.36 899.812L1061.01 899.101L1053.61 891.177C1053.16 890.696 1052.93 890.068 1052.91 889.336C1052.8 883.273 1053.79 873.111 1050.88 868.281C1050.47 867.591 1050.24 866.755 1050.24 865.898C1050.33 844.508 1050.3 822.847 1050.17 800.913C1050.14 792.696 1054.23 785.629 1059.68 780.695C1060.37 780.067 1060.84 779.147 1060.98 778.123L1064.66 753.011C1064.79 752.175 1064.61 751.464 1064.1 750.858L1054.07 738.647C1051.35 735.343 1046.89 735.302 1044.12 738.563L1034.05 750.44C1033.46 751.13 1033.19 752.133 1033.35 753.137C1034.49 760.35 1035.6 767.877 1036.68 775.697C1037.35 780.569 1041.26 783.894 1044.05 787.072C1044.49 787.594 1044.79 788.201 1044.91 788.912C1045.28 790.919 1046.02 792.654 1047.12 794.097C1047.54 794.662 1047.75 795.331 1047.75 796.083V865.584C1047.75 866.42 1047.52 867.215 1047.1 867.884C1045.84 869.849 1044.95 871.041 1044.98 873.78C1045.07 879.112 1044.96 884.402 1044.65 889.65C1044.59 890.382 1044.31 890.946 1043.79 891.344C1041.02 893.33 1038.95 895.965 1037.56 899.247L981.425 899.519L980.758 855.004C993.88 855.297 1007.14 855.506 1020.54 855.611C1026.39 855.673 1030.81 853.248 1033.81 848.334C1037.39 842.459 1037.75 835.706 1034.91 828.074C1016.81 779.545 998.371 730.242 979.601 680.186C977.232 673.893 973.741 670.234 969.093 669.167C956.111 666.177 952.533 676.172 947.673 689.386C933.64 727.419 918.992 766.456 903.712 806.454C897.906 792.529 891.064 774.61 883.17 752.719C879.486 742.515 867.873 743.163 864.084 752.886C854.699 776.952 843.507 807.374 830.526 844.111C829.806 846.139 828.017 849.924 825.158 855.506L825.228 797.401C825.228 796.648 825.368 795.937 825.631 795.268L828.771 787.302C828.912 786.946 829.122 786.633 829.368 786.361C832.192 783.371 835.49 780.611 836.227 775.906C837.472 767.94 838.595 760.329 839.595 753.053C839.735 751.966 839.472 751.025 838.823 750.251L828.631 738.333C826 735.26 821.772 735.281 819.176 738.375L808.948 750.586C808.317 751.339 808.036 752.426 808.212 753.471C809.44 760.769 810.597 768.296 811.667 776.011C812.527 782.075 817.93 783.643 819.632 788.724C820.772 792.111 822.684 794.285 822.684 798.07C822.719 824.038 822.702 847.331 822.631 867.926C822.631 868.93 822.21 869.327 821.386 869.139C821.123 869.076 820.877 869.139 820.667 869.327C820.158 869.787 819.912 870.393 819.895 871.125L819.737 889.566C819.737 890.256 819.474 890.779 818.948 891.135C816.158 892.954 813.983 895.672 812.422 899.289L736.411 899.937V855.213C748.357 855.381 760.04 855.548 771.425 855.694C776.653 855.757 780.758 854.983 783.758 853.353C788.511 850.781 791.248 845.888 791.967 838.675C792.231 835.873 791.231 831.419 788.95 825.293C772.899 782.033 756.848 739.191 740.796 696.767C738.06 689.553 735.867 681.336 732.218 675.44C725.517 664.609 711.185 667.097 706.396 679.852C691.379 719.808 677.661 756.65 665.259 790.375C660.75 802.607 655.856 815.529 650.558 829.14C646.12 840.577 652.049 854.962 663.119 855.276C670.609 855.506 684.573 855.485 704.992 855.234L704.764 899.791C673.662 899.624 642.226 899.477 610.492 899.373C610.123 899.373 609.72 899.08 609.281 898.515C608.386 895.107 606.492 892.703 603.597 891.26C603.054 890.988 602.773 890.487 602.773 889.797L602.668 870.059C610.018 870.581 620.684 871.878 621.947 860.524C622.315 857.283 621.403 852.725 619.228 846.871C614.158 833.217 609.158 819.94 604.264 807.04C603.299 804.489 602.527 799.742 601.948 792.822L602.966 788.598C603.124 787.95 603.404 787.427 603.825 786.988C606.404 784.249 610.351 780.548 611.018 776.346C612.333 768.191 613.509 760.518 614.561 753.304C614.702 752.363 614.456 751.422 613.912 750.732C610.895 746.948 607.755 743.184 604.474 739.442C600.598 734.988 596.896 734.863 593.37 739.065C588.704 744.648 585.424 748.307 583.529 750.084C582.406 749.436 581.161 748.641 579.775 747.68C572.565 742.641 567.407 747.199 564.408 755.311C557.022 775.363 549.181 795.749 540.901 816.469C524.078 771.829 507.746 728.234 491.923 685.685C487.66 674.227 484.222 667.536 473.222 668.937C467.276 669.69 463.469 674.499 461.153 680.688C442.734 730.116 424.262 779.607 405.737 829.14C403.176 835.977 403.632 842.292 407.105 848.125C409.754 852.558 413.228 854.879 417.525 855.067C423.806 855.339 437.927 855.381 459.89 855.172L459.627 899.665L384.037 899.477C383.476 895.735 381.651 892.996 378.564 891.26C377.88 890.884 377.546 890.257 377.564 889.357C377.617 883.628 378.564 874.219 376.213 869.013C375.318 867.048 374.88 864.894 374.897 862.531C375.126 842.396 375.143 821.885 374.968 800.997C374.933 797.338 375.617 793.951 377.038 790.814C378.757 786.967 381.02 783.747 383.844 781.134C384.914 780.151 385.633 778.729 385.879 777.161L389.475 753.137C389.616 752.238 389.37 751.318 388.844 750.67C385.844 747.052 382.669 743.226 379.283 739.232C376.178 735.553 373.091 735.051 370.056 737.706C367.267 740.152 363.46 744.564 358.653 750.9C358.145 751.569 357.969 752.342 358.109 753.22C359.285 760.81 360.407 768.421 361.513 776.053C362.144 780.339 366.109 784.186 368.687 786.967C369.301 787.615 369.687 788.41 369.88 789.372C370.214 791.149 370.863 792.738 371.81 794.118C372.213 794.724 372.406 795.393 372.406 796.146V865.877C372.406 866.818 372.161 867.675 371.652 868.407L370.459 870.08C370.003 870.749 369.775 871.501 369.758 872.359L369.617 889.274C369.617 890.068 369.301 890.654 368.723 891.051C365.933 892.912 363.863 895.672 362.477 899.331L315.306 899.77L315.218 870.08C323.13 870.268 331.217 870.351 339.444 870.31C342.655 870.289 344.988 869.954 346.409 869.264C356.408 864.476 350.443 850.091 347.566 842.605C338.041 817.87 328.2 791.316 318.043 762.943C316.376 758.322 314.446 754.015 312.236 749.98C307.921 742.097 298.816 744.669 295.571 752.321C292.413 759.786 288.677 769.362 284.361 781.05C284.256 781.343 284.046 781.573 283.8 781.677C283.642 781.74 283.467 781.803 283.291 781.824C282.432 780.172 281.204 777.203 279.607 772.875C268.661 743.582 257.206 712.741 245.259 680.374C242.646 673.307 238.207 669.481 231.98 668.875C220.595 667.766 216.911 678.597 213.157 688.801C196.842 733.232 179.809 778.771 162.038 825.418C158.267 835.35 157.53 845.888 166.231 852.537C168.634 854.356 172.967 855.297 179.247 855.36C191.211 855.464 203.123 855.402 214.964 855.172L215.367 900L159.46 899.331C158.372 895.651 156.372 892.87 153.46 890.988C152.899 890.633 152.601 890.089 152.583 889.336C152.39 883.921 152.355 878.548 152.478 873.216C152.53 871.355 151.969 869.85 150.794 868.7C150.25 868.177 149.987 867.508 149.987 866.671V796.481C149.987 796.251 150.022 796.042 150.109 795.833L153.548 787.344C153.636 787.155 153.741 786.988 153.864 786.842C156.986 783.455 160.389 780.527 161.144 775.154C162.249 767.271 163.336 759.953 164.407 753.22C164.564 752.175 164.284 751.109 163.652 750.356L153.407 738.229C150.829 735.176 146.689 735.155 144.11 738.187L133.778 750.314C133.111 751.088 132.813 752.238 132.988 753.325L136.83 778.081C136.935 778.813 137.198 779.419 137.637 779.942L143.671 787.114C144.18 787.72 144.531 788.431 144.724 789.246C145.198 791.149 145.899 792.884 146.829 794.453C147.215 795.101 147.408 795.853 147.408 796.669L147.496 867.278C147.496 868.219 147.127 868.867 146.373 869.18L145.636 869.494C144.97 869.766 144.636 870.33 144.654 871.167V889.107C144.654 889.859 144.391 890.445 143.847 890.842C142.058 892.201 140.496 893.706 139.163 895.379C137.847 897.031 137.479 898.411 138.093 899.498L43.9781 899.77V870.163C50.7144 870.205 57.8366 870.33 65.3447 870.56C69.5549 870.686 73.2213 869.954 76.3438 868.365C82.7468 865.124 82.1328 857.179 79.747 850.843C68.3796 820.693 56.4332 788.87 43.908 755.353C42.3467 751.192 40.3819 748.307 38.0137 746.697C34.4175 744.251 30.3126 744.669 25.699 747.951C16.8576 725.245 8.24432 702.475 -0.158474 679.663C-1.35136 676.423 -3.40381 673.391 -6.31585 670.547L-7 665.613V328.793L100.535 328.856C101.675 328.856 102.605 329.964 102.605 331.323V441.22C102.605 442.453 103.447 443.457 104.499 443.457L162.512 443.185C163.196 443.185 163.757 443.854 163.757 444.67L164.091 640.919C164.091 642.069 164.845 643.031 165.81 643.115C171.406 643.617 176.704 643.554 181.686 642.906C182.58 642.78 183.265 641.881 183.265 640.815L183.177 607.528C183.177 606.378 183.949 605.437 184.914 605.437L225.682 605.228C226.542 605.228 227.226 604.413 227.226 603.388L227.173 476.681C227.173 474.946 228.366 473.524 229.84 473.524C271.099 473.503 314.131 473.482 358.934 473.503C368.652 473.503 378.652 475.259 388.177 474.465C398.931 473.566 410 473.189 421.35 473.357C422.437 473.378 423.349 474.339 423.472 475.636C423.753 478.626 423.876 481.553 423.858 484.396C423.595 525.022 423.56 564.644 423.735 603.305C423.735 604.643 424.683 605.688 425.788 605.605C431.717 605.145 438.208 605.228 445.242 605.835C447.523 606.023 449.716 605.835 451.821 605.27C452.505 605.061 452.979 604.287 452.891 603.451C452.417 598.245 451.856 593.059 451.891 587.79C451.979 569.767 451.908 551.911 451.68 534.201C451.68 532.988 452.47 532.006 453.487 532.006L519.359 531.818C520.482 531.818 521.394 532.905 521.394 534.243V641.777C521.394 642.927 522.201 643.868 523.183 643.847L550.988 643.157C551.672 643.136 552.216 642.467 552.216 641.651L552.163 261.3C552.163 260.15 552.935 259.209 553.9 259.209L636.998 259C637.647 259 638.156 259.606 638.173 260.38C638.366 277.964 638.559 295.109 639.349 312.506C639.893 324.57 639.875 336.321 639.296 347.758C638.682 359.78 638.349 371.301 638.279 382.341C637.98 434.885 638.016 488.411 638.419 542.899C638.419 543.882 639.086 544.656 639.91 544.635C659.768 544.049 678.784 545.262 697.94 544.886C717.886 544.488 739.2 544.3 761.847 544.363C764.987 544.384 768.075 544.216 771.092 543.903C772.337 543.777 773.425 544.969 773.39 546.475C772.706 578.507 772.653 610.184 773.197 641.526C773.232 643.742 774.828 645.478 776.688 645.31L806.054 642.801C806.703 642.759 807.212 642.111 807.212 641.338L807.247 429.574C807.247 428.591 807.913 427.796 808.738 427.796L971.513 427.587C972.391 427.587 973.092 428.424 973.092 429.469C973.005 487.24 973.005 541.059 973.092 590.948C973.128 608.511 972.566 624.736 971.408 639.623C971.321 640.648 970.9 642.111 970.145 643.972C969.83 644.788 970.04 645.122 970.777 645.018C982.513 643.282 995.02 642.801 1008.26 643.575C1009.88 643.679 1011.23 642.153 1011.23 640.229L1011.02 482.473C1011.02 481.239 1011.55 480.612 1012.58 480.612L1056.59 480.236C1057.28 480.236 1057.82 479.567 1057.82 478.772C1057.77 434.215 1057.75 388.676 1057.77 342.154C1057.77 332.578 1059.1 323.253 1058.51 313.676C1057.65 300.399 1057.49 286.474 1058 271.922C1058.03 270.897 1058.75 270.082 1059.61 270.082L1172.2 269.873C1172.78 269.873 1173.25 270.416 1173.25 271.106L1173.36 515.321C1173.36 516.575 1173.88 517.202 1174.92 517.202L1202.92 517.307C1204.09 517.307 1204.67 518.018 1204.67 519.419L1204.6 640.271C1204.6 642.488 1205.53 643.554 1207.39 643.47L1218.74 642.927C1219.9 642.864 1220.79 641.714 1220.77 640.334C1220.28 615.223 1220.39 591.115 1221.09 567.969C1221.21 564.268 1222.81 562.386 1225.91 562.365L1255.73 562.093C1256.63 562.093 1257.37 561.215 1257.37 560.128L1257.42 429.051C1257.42 428.319 1257.93 427.734 1258.54 427.734C1276 427.796 1292.59 427.734 1308.36 427.504C1312.66 427.441 1317.06 427.671 1321.57 428.152C1327.4 428.779 1333.45 429.448 1339.36 428.633C1344.92 427.88 1350.64 427.42 1356.53 427.232C1358.41 427.169 1359.36 426.04 1359.36 423.845L1359.08 276.522C1359.06 275.079 1360.06 273.887 1361.27 273.887L1442 273.971Z" fill="white" fill-opacity="0.33"/>
<path d="M1440 637H-7V900H1440V637Z" fill="#414F5C"/>
<g opacity="0.5">
<path d="M1440 707H-7V828H1440V707Z" fill="#85A4D9"/>
</g>
<path d="M1061.75 636.882L1024.63 637C1026.55 631.325 1030.14 627.355 1035.38 625.032C1036.33 624.591 1036.8 623.855 1036.8 622.826L1036.74 597.331C1036.71 596.214 1037.33 595.155 1038.3 594.596C1038.74 594.332 1039.24 594.185 1039.74 594.126C1040.95 593.979 1041.54 593.332 1041.54 592.156V491.528C1041.51 490.381 1041.16 489.381 1040.45 488.529C1038.59 486.264 1037.24 483.618 1036.33 480.618C1036 479.56 1035.41 478.677 1034.59 477.942C1029.05 473.179 1023.87 468.944 1022.63 461.151C1020.95 450.742 1019.12 440.773 1017.09 431.363C1016.8 429.981 1017.24 428.54 1018.24 427.54L1035.62 410.279C1040.01 405.927 1047.11 405.897 1051.53 410.249L1068.82 427.217C1069.73 428.128 1070.17 429.452 1069.94 430.745C1068.08 441.185 1066.23 451.741 1064.37 462.357C1063.13 469.444 1057.06 474.061 1052.09 478.589C1051.35 479.266 1050.79 480.118 1050.55 481.089C1049.85 483.941 1048.58 486.499 1046.75 488.764C1046.11 489.558 1045.78 490.499 1045.78 491.528V591.656C1045.78 592.773 1046.25 593.626 1047.17 594.214L1048.37 595.008C1049.32 595.626 1049.79 596.478 1049.76 597.566L1049.67 622.415C1049.67 623.738 1050.26 624.649 1051.47 625.208C1056.5 627.502 1059.92 631.383 1061.75 636.882ZM1026.99 462.828C1027.14 463.592 1027.75 464.151 1028.52 464.21L1033.56 464.592C1034.56 464.68 1035.41 463.857 1035.38 462.828L1034.44 434.098C1034.41 433.157 1033.65 432.422 1032.7 432.451L1023.33 432.539C1022.27 432.569 1021.48 433.51 1021.69 434.568L1026.99 462.828ZM1039.3 462.739C1039.33 463.622 1040.04 464.327 1040.92 464.357L1046.05 464.533C1046.99 464.563 1047.76 463.857 1047.79 462.916L1048.85 434.333C1048.87 433.392 1048.14 432.598 1047.2 432.598L1040.1 432.422C1039.12 432.422 1038.36 433.186 1038.39 434.157L1039.3 462.739ZM1065.46 434.804C1065.72 433.568 1064.75 432.392 1063.46 432.392L1054.65 432.451C1053.53 432.451 1052.65 433.304 1052.62 434.421L1051.76 462.416C1051.73 463.563 1052.7 464.533 1053.85 464.504L1058.27 464.357C1059.21 464.357 1060.01 463.622 1060.19 462.71L1065.46 434.804Z" fill="#0A0201"/>
<path d="M610.862 636.927L587.751 637C588.944 633.471 591.181 631.003 594.446 629.559C595.033 629.285 595.327 628.828 595.327 628.188L595.29 612.336C595.272 611.642 595.657 610.983 596.262 610.636C596.537 610.471 596.849 610.38 597.161 610.343C597.913 610.252 598.28 609.85 598.28 609.119V546.554C598.261 545.841 598.041 545.22 597.601 544.689C596.445 543.282 595.602 541.636 595.033 539.771C594.831 539.113 594.465 538.565 593.951 538.108C590.503 535.146 587.275 532.513 586.504 527.668C585.459 521.196 584.322 514.998 583.056 509.147C582.873 508.288 583.148 507.392 583.771 506.771L594.593 496.039C597.326 493.333 601.746 493.314 604.497 496.02L615.264 506.57C615.833 507.136 616.108 507.959 615.961 508.763C614.805 515.254 613.65 521.818 612.494 528.418C611.724 532.824 607.946 535.694 604.846 538.51C604.387 538.93 604.039 539.461 603.892 540.064C603.452 541.837 602.663 543.428 601.526 544.836C601.123 545.329 600.921 545.914 600.921 546.554V608.808C600.921 609.502 601.214 610.033 601.783 610.398L602.535 610.892C603.122 611.276 603.415 611.806 603.397 612.483L603.342 627.932C603.342 628.754 603.709 629.321 604.461 629.669C607.597 631.095 609.725 633.508 610.862 636.927ZM589.219 528.71C589.31 529.186 589.696 529.533 590.173 529.569L593.309 529.807C593.933 529.862 594.465 529.35 594.446 528.71L593.859 510.848C593.841 510.263 593.364 509.806 592.777 509.824L586.944 509.879C586.284 509.897 585.789 510.482 585.917 511.14L589.219 528.71ZM596.886 528.655C596.904 529.204 597.344 529.643 597.894 529.661L601.086 529.771C601.673 529.789 602.15 529.35 602.168 528.765L602.828 510.994C602.847 510.409 602.388 509.915 601.801 509.915L597.381 509.806C596.776 509.806 596.299 510.281 596.317 510.884L596.886 528.655ZM613.173 511.287C613.338 510.519 612.733 509.787 611.926 509.787L606.442 509.824C605.745 509.824 605.194 510.354 605.176 511.049L604.644 528.454C604.626 529.167 605.231 529.771 605.946 529.752L608.698 529.661C609.285 529.661 609.78 529.204 609.89 528.637L613.173 511.287Z" fill="#0A0201"/>
</g>
<path opacity="0.5" d="M1836.78 -83.8126C1836.66 -81.7931 1836.21 -79.7887 1835.47 -77.845C1835.19 -77.0706 1834.84 -76.2962 1834.46 -75.537C1832.14 -70.9816 1828.29 -66.7905 1823.45 -63.3588C1820.97 -61.5974 1818.23 -60.2308 1815.37 -59.2438C1814.19 -58.8338 1812.98 -58.4846 1811.75 -58.2113C1811.05 -58.0594 1810.35 -57.9227 1809.65 -57.8165C1808.24 -57.6039 1806.82 -57.4672 1805.39 -57.4368C1803.96 -57.3913 1802.53 -57.4368 1801.12 -57.5886C1797.57 -57.9531 1794.07 -58.8794 1790.83 -60.3827C1790.87 -59.259 1790.89 -58.1202 1790.89 -56.9813C1790.89 -56.6169 1790.89 -56.2372 1790.89 -55.8728C1790.89 -55.0983 1790.87 -54.324 1790.84 -53.5495C1790.84 -53.1092 1790.81 -52.6841 1790.8 -52.2437C1790.77 -51.5148 1790.72 -50.7859 1790.68 -50.0722C1790.65 -49.6319 1790.62 -49.1915 1790.59 -48.7511C1790.52 -47.916 1790.43 -47.0809 1790.36 -46.2457C1790.3 -45.6839 1790.24 -45.122 1790.16 -44.5602C1790.05 -43.7554 1789.96 -42.9507 1789.84 -42.161C1789.76 -41.6144 1789.66 -41.0677 1789.57 -40.5211C1789.47 -39.9744 1789.38 -39.4277 1789.28 -38.8811C1789.17 -38.2889 1789.05 -37.6815 1788.91 -37.0893C1788.81 -36.6034 1788.7 -36.1327 1788.59 -35.6468C1788.44 -35.009 1788.3 -34.3864 1788.14 -33.7639C1788.04 -33.3994 1787.94 -33.0199 1787.83 -32.6554C1787.44 -31.1977 1787.01 -29.7551 1786.52 -28.3429C1786.46 -28.1759 1786.42 -28.0089 1786.36 -27.8419C1786.11 -27.1282 1785.85 -26.4297 1785.58 -25.7312C1785.46 -25.4123 1785.34 -25.0935 1785.21 -24.7898C1784.94 -24.1065 1784.65 -23.4231 1784.36 -22.755C1784.23 -22.4513 1784.1 -22.1628 1783.97 -21.8591C1783.65 -21.1606 1783.33 -20.4621 1782.99 -19.7788C1782.92 -19.627 1782.82 -19.4751 1782.75 -19.3081C1780.18 -14.2213 1776.97 -9.51395 1772.98 -5.3989C1759.27 8.76841 1735.46 13.673 1719.6 2.04154C1706.16 25.927 1678.67 40.9144 1651.6 39.1074C1624.53 37.3004 1599.21 18.8055 1588.96 -6.64406C1564.13 1.06976 1538.9 -4.67008 1518.91 -18.7311C1518.05 -19.3385 1517.2 -19.961 1516.37 -20.5988C1516.18 -20.7354 1515.99 -20.8721 1515.8 -21.0239C1515.04 -21.6161 1514.28 -22.2235 1513.54 -22.8309C1513.29 -23.0283 1513.05 -23.2257 1512.8 -23.4383C1512.09 -24.0305 1511.39 -24.6379 1510.69 -25.2605C1510.43 -25.4883 1510.17 -25.7312 1509.91 -25.9589C1509.24 -26.5663 1508.57 -27.1889 1507.9 -27.8267C1507.65 -28.0848 1507.39 -28.343 1507.13 -28.6011C1506.79 -28.9352 1506.46 -29.2692 1506.12 -29.6033C1506.08 -29.4818 1506.05 -29.3755 1506 -29.2541C1505.7 -28.4493 1505.33 -27.6445 1504.94 -26.8549C1502.53 -22.1021 1498.52 -17.744 1493.49 -14.1908C1489.84 -11.5942 1485.67 -9.80249 1481.32 -8.84586C1479.88 -8.52698 1478.4 -8.29919 1476.92 -8.16252C1475.45 -8.02586 1473.96 -7.98029 1472.47 -8.04102C1471.72 -8.07138 1470.99 -8.117 1470.24 -8.19292C1466.55 -8.55736 1462.92 -9.52914 1459.55 -11.1084C1459.59 -9.93913 1459.61 -8.7547 1459.62 -7.5703C1459.62 -7.19067 1459.62 -6.79586 1459.62 -6.41624C1459.62 -5.61146 1459.61 -4.80674 1459.58 -4.01714C1459.58 -3.56159 1459.55 -3.10602 1459.53 -2.65047C1459.5 -1.89124 1459.46 -1.14721 1459.41 -0.38797C1459.38 0.0675659 1459.35 0.523148 1459.32 0.978683C1459.26 1.84422 1459.17 2.70967 1459.07 3.5752C1459.01 4.1674 1458.95 4.74447 1458.88 5.32149C1458.77 6.15664 1458.66 6.99183 1458.54 7.82699C1458.45 8.40401 1458.36 8.96575 1458.25 9.54277C1458.16 10.1198 1458.06 10.6816 1457.95 11.2587C1457.83 11.8812 1457.71 12.5038 1457.57 13.1112C1457.46 13.6123 1457.36 14.1134 1457.23 14.6145C1457.08 15.2674 1456.93 15.9203 1456.76 16.5733C1456.67 16.9529 1456.55 17.3325 1456.46 17.7121C1456.05 19.2306 1455.61 20.7187 1455.1 22.1916C1455.04 22.3739 1454.98 22.556 1454.92 22.7383C1454.66 23.4671 1454.39 24.196 1454.11 24.9249C1453.99 25.2589 1453.87 25.593 1453.73 25.9119C1453.44 26.6256 1453.16 27.3241 1452.85 28.0378C1452.71 28.3415 1452.58 28.6603 1452.44 28.964C1452.11 29.6929 1451.79 30.4066 1451.42 31.1202C1451.34 31.2873 1451.25 31.4391 1451.18 31.6062C1450.32 33.2917 1449.41 34.9316 1448.42 36.526C1446.29 39.9425 1443.84 43.1465 1441.01 46.062C1426.75 60.7911 1401.97 65.9083 1385.47 53.8062C1371.49 78.6483 1342.9 94.243 1314.73 92.3601C1286.56 90.4924 1260.22 71.2381 1249.56 44.7561C1222.61 53.1228 1195.22 46.2593 1174.04 30.2395C1173.84 30.0876 1173.66 29.951 1173.46 29.8144C1172.65 29.207 1171.87 28.5692 1171.08 27.9315C1170.82 27.7189 1170.58 27.5215 1170.34 27.3089C1169.59 26.6863 1168.86 26.0485 1168.13 25.4108C1167.86 25.1678 1167.58 24.9249 1167.31 24.6819C1166.61 24.0442 1165.91 23.3912 1165.23 22.7383C1164.95 22.4801 1164.68 22.2068 1164.42 21.9335C1163.75 21.2654 1163.06 20.5972 1162.41 19.9139C1162.17 19.6558 1161.92 19.3824 1161.68 19.1243C1161.01 18.4106 1160.34 17.697 1159.7 16.9529C1159.58 16.8162 1159.46 16.6796 1159.35 16.5278C1157.92 14.8727 1156.54 13.172 1155.2 11.4258C1155.06 11.2587 1154.92 11.0916 1154.8 10.9094C1154.33 10.2869 1153.89 9.6491 1153.43 9.01134C1153.08 8.52544 1152.73 8.03957 1152.38 7.53848C1151.99 6.94627 1151.59 6.35401 1151.21 5.76181C1150.85 5.19997 1150.46 4.62296 1150.11 4.06113C1149.75 3.48411 1149.42 2.90707 1149.07 2.33006C1148.7 1.70748 1148.33 1.08493 1147.97 0.462364C1147.65 -0.099472 1147.33 -0.661293 1147.03 -1.23831C1146.81 -1.63311 1146.58 -2.02786 1146.39 -2.42267C1140.44 1.55573 1133.57 4.19784 1126.51 5.24557C1122.37 15.8749 1113.52 24.9249 1102.76 28.797C1093.22 32.2439 1082.19 31.9098 1071.73 28.7362C1065.88 26.9596 1060.21 24.2871 1055.09 20.8858C1054.84 20.7339 1054.61 20.5669 1054.37 20.3999C1053.84 20.0354 1053.29 19.671 1052.77 19.2762C1051.68 18.4714 1050.61 17.6362 1049.59 16.7707C1049.3 16.5277 1049.02 16.2848 1048.73 16.0267C1048.3 15.6622 1047.89 15.2978 1047.49 14.9182C1047.14 14.5993 1046.81 14.2652 1046.46 13.9312C1045.93 13.3997 1045.39 12.8682 1044.88 12.3216C1044.5 11.9116 1044.1 11.5016 1043.73 11.0764C1043.45 10.7424 1043.16 10.4084 1042.88 10.0743C1042.49 9.60357 1042.11 9.13285 1041.74 8.66212C1041.53 8.3888 1041.3 8.11542 1041.1 7.84209C1040.57 7.11323 1040.05 6.38444 1039.55 5.64039C1039.37 5.36707 1039.2 5.09368 1039.03 4.82036C1038.67 4.22816 1038.3 3.63599 1037.97 3.04379C1037.83 2.78564 1037.68 2.54268 1037.54 2.28454C1037.1 1.46457 1036.67 0.629379 1036.29 -0.220963C1036.22 -0.403175 1036.14 -0.585373 1036.07 -0.767586C1035.75 -1.48127 1035.46 -2.21012 1035.18 -2.93899C1035.09 -3.19713 1035 -3.44008 1034.91 -3.69822C1034.59 -4.6093 1034.3 -5.52039 1034.06 -6.44665C1024.09 -2.46826 1012.94 -0.236153 1002.68 -3.34901C998.739 -4.5486 995.011 -6.71994 991.922 -9.5443C991.542 -1.96713 989.655 5.65555 985.851 11.6839C982.701 16.6644 978.242 20.5669 972.247 22.4498C971.501 22.6927 970.74 22.875 969.98 23.0572C969.828 23.0875 969.66 23.1331 969.508 23.1635C968.808 23.3153 968.108 23.4368 967.408 23.5279C967.149 23.5583 966.906 23.5886 966.647 23.619C966.115 23.6797 965.582 23.7253 965.065 23.7709C964.593 23.8013 964.121 23.8316 963.649 23.8468C963.33 23.8468 962.995 23.8619 962.676 23.8771C961.763 23.8771 960.85 23.8772 959.937 23.8316C957.045 23.6798 954.169 23.285 951.339 22.7232C952.298 39.7907 950.061 55.355 937.218 67.1079C926.292 77.0995 911.821 82.7937 897.213 83.8718C883.96 84.8436 870.158 82.6874 858.852 75.6265C847.546 68.5505 839.101 56.0991 838.812 42.6302C829.286 50.42 814.678 49.7519 804.513 42.8277C794.348 35.9034 788.384 23.862 786.497 11.608C783.575 13.3542 780.669 14.5386 777.808 15.2826C772.178 16.7707 766.745 16.4366 761.754 14.7815C759.852 17.7273 757.707 20.5366 755.242 23.0876C741.531 37.2549 717.717 42.1595 701.861 30.528C688.425 54.4135 660.929 69.4008 633.858 67.5939C606.787 65.7869 581.467 47.2919 571.226 21.8424C546.392 29.5562 521.163 23.8164 501.168 9.75538C500.316 9.14799 499.464 8.52545 498.627 7.8877C498.445 7.75104 498.247 7.61433 498.064 7.46248C497.303 6.87028 496.542 6.26289 495.797 5.65549C495.553 5.45809 495.31 5.26076 495.066 5.04817C494.351 4.45597 493.651 3.84856 492.951 3.22599C492.693 2.99822 492.434 2.75523 492.175 2.52746C491.506 1.92007 490.836 1.29752 490.167 0.659767C489.908 0.401627 489.649 0.143478 489.391 -0.114662C489.056 -0.448723 488.721 -0.782745 488.386 -1.11681C488.341 -0.995331 488.31 -0.889069 488.265 -0.767586C487.96 0.0372009 487.595 0.84201 487.199 1.63161C484.795 6.38442 480.778 10.7424 475.756 14.2956C472.104 16.8922 467.935 18.684 463.583 19.6406C462.138 19.9595 460.661 20.1873 459.185 20.324C457.709 20.4606 456.218 20.5062 454.727 20.4455C453.981 20.4151 453.251 20.3695 452.505 20.2935C448.808 19.9291 445.186 18.9573 441.808 17.3781C441.854 18.5473 441.869 19.7318 441.884 20.9162C441.884 21.2958 441.884 21.6905 441.884 22.0701C441.884 22.8749 441.869 23.6797 441.839 24.4693C441.839 24.9249 441.808 25.3805 441.793 25.836C441.762 26.5952 441.717 27.3393 441.671 28.0985C441.641 28.554 441.61 29.0096 441.58 29.4651C441.519 30.3307 441.428 31.1962 441.336 32.0617C441.275 32.6539 441.215 33.2309 441.138 33.8079C441.032 34.6431 440.926 35.4782 440.804 36.3134C440.712 36.8904 440.621 37.4522 440.515 38.0292C440.423 38.6063 440.317 39.1681 440.21 39.7451C440.089 40.3677 439.967 40.9903 439.83 41.5977C439.723 42.0988 439.617 42.5999 439.495 43.101C439.343 43.7539 439.191 44.4068 439.023 45.0598C438.932 45.4394 438.81 45.819 438.719 46.1986C438.308 47.7171 437.867 49.2052 437.365 50.6781C437.304 50.8603 437.243 51.0425 437.182 51.2247C436.923 51.9536 436.65 52.6825 436.376 53.4113C436.254 53.7454 436.132 54.0795 435.995 54.3984C435.706 55.1121 435.417 55.8105 435.113 56.5242C434.976 56.8279 434.839 57.1468 434.702 57.4505C434.367 58.1794 434.048 58.893 433.682 59.6067C433.606 59.7737 433.515 59.9256 433.439 60.0926C432.587 61.7781 431.674 63.4181 430.685 65.0125C428.554 68.429 426.104 71.6329 423.274 74.5484C409.016 89.2775 384.228 94.3948 367.733 82.2926C353.749 107.135 325.157 122.729 296.991 120.847C268.825 118.979 242.484 99.7246 231.818 73.2425C204.869 81.6093 177.479 74.7458 156.297 58.726C156.099 58.5741 155.917 58.4375 155.719 58.3008C154.912 57.6935 154.136 57.0557 153.345 56.418C153.086 56.2054 152.843 56.0079 152.599 55.7953C151.854 55.1728 151.123 54.535 150.393 53.8973C150.119 53.6543 149.845 53.4114 149.571 53.1684C148.871 52.5307 148.171 51.8777 147.487 51.2247C147.213 50.9666 146.939 50.6933 146.68 50.42C146.011 49.7519 145.326 49.0837 144.672 48.4004C144.428 48.1423 144.185 47.8689 143.941 47.6108C143.272 46.8971 142.602 46.1834 141.963 45.4394C141.841 45.3027 141.72 45.1661 141.613 45.0143C140.183 43.3591 138.798 41.6584 137.459 39.9121C137.322 39.7451 137.185 39.5781 137.063 39.3959C136.592 38.7733 136.15 38.1356 135.694 37.4978C135.344 37.0119 134.994 36.5259 134.644 36.0249C134.248 35.4327 133.853 34.8405 133.472 34.2483C133.107 33.6864 132.727 33.1094 132.377 32.5476C132.011 31.9706 131.677 31.3935 131.327 30.8165C130.961 30.1939 130.596 29.5714 130.231 28.9488C129.911 28.387 129.592 27.8252 129.287 27.2482C129.074 26.8534 128.846 26.4585 128.648 26.0637C122.699 30.0421 115.836 32.6843 108.775 33.732C104.636 44.3613 95.7803 53.4113 85.0221 57.2834C75.4812 60.7303 64.4492 60.3963 53.9953 57.2227C48.1369 55.4461 42.4763 52.7736 37.3482 49.3722C37.1048 49.2204 36.8765 49.0534 36.6331 48.8863C36.1005 48.5219 35.5526 48.1575 35.0353 47.7627C33.9397 46.9579 32.8745 46.1227 31.855 45.2572C31.5659 45.0142 31.2767 44.7713 30.9876 44.5131C30.5616 44.1487 30.1507 43.7843 29.7551 43.4047C29.4051 43.0858 29.0703 42.7517 28.7203 42.4176C28.1878 41.8862 27.6552 41.3547 27.1378 40.8081C26.7574 40.3981 26.3618 39.9881 25.9966 39.5629C25.7074 39.2289 25.4183 38.8948 25.1444 38.5608C24.7488 38.09 24.3683 37.6193 24.0032 37.1486C23.7901 36.8753 23.5619 36.6019 23.3641 36.3286C22.8315 35.5997 22.3141 34.8708 21.812 34.1268C21.6294 33.8534 21.462 33.5802 21.2946 33.3068C20.9294 32.7146 20.5642 32.1225 20.2294 31.5303C20.0925 31.2721 19.9403 31.0292 19.8034 30.771C19.3621 29.951 18.936 29.1158 18.5556 28.2655C18.4795 28.0833 18.4034 27.9011 18.3274 27.7189C18.0078 27.0052 17.7187 26.2763 17.4448 25.5475C17.3535 25.2893 17.2621 25.0464 17.1709 24.7882C16.8513 23.8772 16.5622 22.9661 16.3188 22.0398C6.35181 26.0182 -4.80203 28.2503 -15.0581 25.1375C-18.9992 23.9379 -22.7273 21.7664 -25.8163 18.9421C-26.1967 26.5192 -28.0836 34.142 -31.8877 40.1703C-35.0376 45.1509 -39.4961 49.0533 -45.4915 50.9362C-46.2371 51.1792 -46.998 51.3614 -47.7588 51.5436C-47.9109 51.574 -48.0783 51.6196 -48.2305 51.65C-48.9305 51.8018 -49.6304 51.9233 -50.3304 52.0144C-50.5891 52.0447 -50.8325 52.0751 -51.0912 52.1055C-51.6238 52.1662 -52.1564 52.2117 -52.6738 52.2573C-53.1455 52.2877 -53.6172 52.3181 -54.0889 52.3333C-54.4084 52.3333 -54.7432 52.3484 -55.0628 52.3636C-55.9758 52.3636 -56.8888 52.3636 -57.8018 52.3181C-60.693 52.1662 -63.5689 51.7714 -66.3992 51.2095C-65.4406 68.2771 -67.6774 83.8415 -80.5203 95.5944C-91.4459 105.586 -105.917 111.28 -120.525 112.358C-133.779 113.33 -147.58 111.174 -158.886 104.113C-170.192 97.0369 -178.638 84.5855 -178.927 71.1167C-188.452 78.9065 -203.06 78.2383 -213.225 71.3141C-223.39 64.3899 -229.355 52.3485 -231.242 40.0944C-234.163 41.8407 -237.07 43.025 -239.93 43.7691C-251.662 46.8668 -262.588 42.1595 -270.242 33.656C-270.333 33.5649 -270.409 33.4738 -270.501 33.3675C-270.866 32.9424 -271.231 32.5172 -271.581 32.0921C-271.718 31.925 -271.855 31.758 -271.977 31.591C-272.296 31.181 -272.601 30.771 -272.905 30.3458C-273.057 30.1332 -273.209 29.9207 -273.362 29.7081C-273.635 29.3133 -273.925 28.9033 -274.183 28.4933C-274.335 28.2504 -274.503 27.9922 -274.655 27.7493C-274.898 27.3545 -275.142 26.9444 -275.385 26.5344C-275.538 26.2611 -275.69 25.9726 -275.842 25.6993C-276.055 25.3045 -276.283 24.9097 -276.481 24.4997C-276.633 24.1809 -276.785 23.862 -276.937 23.5431C-277.12 23.1635 -277.318 22.7686 -277.485 22.3738C-277.713 21.8424 -277.927 21.2957 -278.14 20.7643C-278.322 20.3087 -278.49 19.8684 -278.642 19.3977C-278.809 18.927 -278.976 18.4714 -279.129 18.0006C-279.235 17.6818 -279.326 17.3478 -279.418 17.0137C-279.555 16.5733 -279.676 16.133 -279.798 15.6774C-279.889 15.3434 -279.966 14.9942 -280.042 14.6601C-280.148 14.2197 -280.239 13.7642 -280.331 13.3238C-280.392 12.9746 -280.452 12.6404 -280.513 12.2912C-280.589 11.8357 -280.666 11.3802 -280.726 10.9246C-280.772 10.5754 -280.818 10.2413 -280.863 9.89208C-280.924 9.42136 -280.955 8.95057 -281 8.49503C-281.031 8.16097 -281.061 7.82693 -281.076 7.47768C-281.107 6.99177 -281.122 6.50591 -281.122 6.00481C-281.122 5.68593 -281.137 5.36705 -281.137 5.04817C-281.137 4.50153 -281.107 3.97005 -281.092 3.4234C-281.092 3.15007 -281.092 2.87679 -281.061 2.60345C-281.016 1.79867 -280.939 0.993835 -280.833 0.189049C-280.833 0.189049 -280.833 0.189034 -280.833 0.173851C-285.2 1.61639 -289.963 1.70753 -294.421 0.58387C-298.515 -0.433502 -302.349 -2.46824 -305.423 -5.3837C-309.836 -9.57468 -312.545 -15.4967 -313.108 -21.6009C-313.366 -24.3797 -313.168 -27.1889 -312.484 -29.8918C-316.379 -27.8419 -321.051 -27.69 -325.19 -29.1022C-328.416 -30.1955 -331.307 -32.2454 -333.254 -35.0849C-334.609 -37.0437 -335.43 -39.3063 -335.796 -41.6599C-335.811 -41.7814 -335.841 -41.9028 -335.856 -42.0091C-336.252 -45.0916 -335.826 -48.3108 -334.624 -51.1655C-333.757 -53.2307 -332.509 -55.1135 -330.865 -56.632C-329.694 -57.7101 -328.4 -58.5605 -327.031 -59.259C-325.661 -59.9423 -324.231 -60.4737 -322.74 -60.8078C-322.146 -60.9445 -321.538 -61.0508 -320.914 -61.1419C-318.449 -61.4911 -315.877 -61.4456 -313.29 -61.1419C-309.425 -60.656 -305.53 -59.5323 -301.984 -58.1201C-298.423 -61.5671 -294.467 -64.4977 -290.222 -66.9424C-274.944 -75.704 -256.014 -77.8906 -239.002 -73.3048C-237.115 -72.7886 -235.244 -72.1963 -233.418 -71.5282C-231.576 -70.8448 -229.781 -70.0856 -228.016 -69.2505C-223.603 -67.1398 -219.449 -64.4977 -215.645 -61.3241C-190.537 -83.676 -149.437 -84.6022 -123.371 -63.4196C-115.884 -73.8818 -105.156 -82.2638 -92.7698 -85.3463C-92.0546 -85.5285 -91.3394 -85.6803 -90.6242 -85.8018C-89.1938 -86.06 -87.7787 -86.2118 -86.3483 -86.2877C-84.9332 -86.3637 -83.518 -86.3485 -82.1181 -86.2877C-75.8032 -85.9385 -69.5947 -84.1466 -63.4472 -82.1423C-62.0777 -81.7019 -60.7234 -81.2464 -59.3691 -80.7909C-56.7823 -79.9254 -29.727 -64.3611 -32.9377 -61.4304C-29.727 -64.3762 -26.2423 -66.988 -22.5599 -69.2809C-18.8774 -71.5738 -14.982 -73.5174 -10.9648 -75.1118C-9.62573 -75.6433 -8.27145 -76.1444 -6.90195 -76.5999C5.42358 -80.6846 18.8143 -81.55 31.4898 -78.7257C34.807 -77.9816 38.0786 -76.9795 41.2589 -75.7344C44.1044 -76.5695 47.026 -77.1769 49.9781 -77.4957C53.3562 -77.8602 56.7647 -77.8754 60.1276 -77.5565C61.908 -77.3895 63.6883 -77.1314 65.4382 -76.7821C67.1273 -76.448 68.8163 -76.0228 70.4597 -75.5217C77.079 -73.5022 83.3027 -70.1919 88.6285 -65.7276C89.3285 -66.5324 90.0589 -67.3069 90.8045 -68.0813C95.8108 -73.1682 101.745 -77.2832 108.182 -80.2746C108.775 -80.5479 109.354 -80.8061 109.962 -81.0642C117.51 -84.2834 125.681 -85.9689 133.853 -85.8322L135.968 -86.3788C135.526 -86.1814 135.1 -85.9992 134.659 -85.8018C141.674 -85.5741 148.628 -84.0404 155.125 -81.3375C155.582 -81.4894 156.054 -81.6412 156.525 -81.7626C157.058 -81.9145 157.606 -82.0512 158.154 -82.1727C160.893 -82.7952 163.753 -83.1293 166.416 -83.2963C182.196 -84.3592 197.96 -85.407 213.74 -86.4699C221.942 -87.0166 230.159 -87.5632 238.376 -88.0643C243.854 -88.3984 249.332 -88.702 254.825 -88.9754C260.303 -89.2487 265.797 -89.4765 271.275 -89.6587C276.753 -89.8409 282.246 -89.9624 287.724 -90.0231C293.202 -90.0838 298.68 -90.0687 304.158 -89.9624C309.636 -89.8561 315.099 -89.6739 320.561 -89.4006C328.763 -88.9754 336.95 -88.3224 345.121 -87.3962C346.019 -87.2899 346.947 -87.1685 347.86 -86.9711C350.599 -86.394 353.216 -85.2856 354.327 -82.7953C354.662 -82.0208 354.799 -81.2161 354.784 -80.4113C354.738 -78.9839 354.175 -77.5717 353.308 -76.3569C353.064 -76.0077 352.79 -75.6888 352.486 -75.3699C352.182 -75.0511 351.877 -74.7777 351.543 -74.5196C351.375 -74.3981 351.208 -74.2767 351.025 -74.1552C348.225 -72.333 344.771 -71.9534 341.469 -71.6345C361.433 -71.6648 381.413 -71.6952 401.377 -71.7104C408.438 -71.7104 415.498 -71.7256 422.559 -71.7104C423.913 -73.2592 425.465 -74.6411 427.063 -75.9318C432.374 -80.229 438.141 -83.6456 444.243 -86.3788C445.004 -86.7281 445.78 -87.0469 446.54 -87.381C448.092 -88.0187 449.66 -88.6261 451.242 -89.188C452.825 -89.7498 454.423 -90.2813 456.036 -90.7672C468.955 -94.7152 482.832 -96.4615 496.497 -97.6003C497.349 -97.6763 498.201 -97.7369 499.053 -97.8129C500.758 -97.9495 502.462 -98.071 504.151 -98.1925C508.625 -98.5114 513.129 -98.8302 517.633 -99.058C522.137 -99.2858 526.626 -99.4376 531.13 -99.4376C538.997 -99.4376 546.834 -99.0125 554.594 -97.7825C555.705 -97.6003 556.801 -97.4181 557.911 -97.2055C575.578 -93.8801 592.955 -85.6955 604.14 -71.4523C606.559 -75.1421 609.77 -77.9361 613.468 -80.0771C614.944 -80.9275 616.496 -81.6715 618.109 -82.3397C618.915 -82.6737 619.737 -82.9775 620.574 -83.266C627.239 -85.5589 634.68 -86.5307 641.649 -87.1988C660.122 -88.9602 678.763 -90.4787 697.403 -90.9646C705.224 -91.162 713.03 -91.162 720.837 -90.9646C722.997 -92.6349 725.249 -94.1534 727.608 -95.5048C742.886 -104.266 761.815 -106.453 778.827 -101.867C780.714 -101.351 782.586 -100.759 784.412 -100.091C786.253 -99.4072 788.049 -98.648 789.814 -97.8129C794.227 -95.7022 798.381 -93.0601 802.185 -89.8865C827.293 -112.238 868.393 -113.165 894.459 -91.982C901.946 -102.444 912.673 -110.826 925.06 -113.909C925.775 -114.091 926.49 -114.243 927.205 -114.364C928.636 -114.622 930.051 -114.774 931.481 -114.85C932.896 -114.926 934.312 -114.911 935.712 -114.85C942.026 -114.501 948.235 -112.709 954.382 -110.705C955.752 -110.264 957.106 -109.809 958.461 -109.353C961.047 -108.488 988.103 -92.9234 984.892 -89.9928C988.103 -92.9386 991.587 -95.5504 995.27 -97.8433C998.952 -100.136 1002.85 -102.08 1006.86 -103.674C1008.2 -104.206 1009.56 -104.707 1010.93 -105.162C1023.25 -109.247 1036.64 -110.113 1049.32 -107.288C1052.64 -106.544 1055.91 -105.542 1059.09 -104.297C1061.93 -105.132 1064.86 -105.739 1067.81 -106.058C1071.19 -106.423 1074.58 -106.438 1077.96 -106.119C1079.74 -105.952 1081.52 -105.694 1083.27 -105.344C1084.96 -105.01 1086.65 -104.585 1088.29 -104.084C1094.91 -102.065 1101.13 -98.7543 1106.46 -94.29C1107.16 -95.0948 1107.89 -95.8693 1108.63 -96.6437C1113.64 -101.731 1119.58 -105.846 1126.01 -108.837C1126.61 -109.11 1127.18 -109.368 1127.79 -109.627C1135.34 -112.846 1143.51 -114.531 1151.68 -114.395L1153.8 -114.941C1153.36 -114.744 1152.93 -114.562 1152.49 -114.364C1159.5 -114.136 1166.46 -112.603 1172.96 -109.9C1173.41 -110.052 1173.88 -110.204 1174.36 -110.325C1174.89 -110.477 1175.44 -110.614 1175.98 -110.735C1178.72 -111.358 1181.58 -111.692 1184.25 -111.859C1200.03 -112.922 1215.79 -113.969 1231.57 -115.032C1239.77 -115.579 1247.99 -116.126 1256.21 -116.627C1261.68 -116.961 1267.16 -117.264 1272.65 -117.538C1278.13 -117.811 1283.63 -118.039 1289.1 -118.221C1294.58 -118.403 1300.08 -118.525 1305.55 -118.585C1311.03 -118.646 1316.51 -118.631 1321.99 -118.525C1327.47 -118.418 1332.93 -118.236 1338.39 -117.963C1346.59 -117.538 1354.78 -116.885 1362.95 -115.959C1363.85 -115.852 1364.78 -115.731 1365.69 -115.533C1368.43 -114.956 1371.05 -113.848 1372.16 -111.358C1372.49 -110.583 1372.63 -109.778 1372.61 -108.974C1372.57 -107.546 1372 -106.134 1371.14 -104.919C1370.89 -104.57 1370.62 -104.251 1370.32 -103.932C1370.03 -103.629 1369.71 -103.34 1369.37 -103.082C1369.2 -102.961 1369.04 -102.839 1368.85 -102.718C1366.06 -100.895 1362.62 -100.516 1359.3 -100.197C1379.26 -100.227 1399.24 -100.258 1419.21 -100.273C1426.27 -100.273 1433.33 -100.288 1440.39 -100.273C1441.74 -101.822 1443.29 -103.203 1444.89 -104.494C1450.2 -108.791 1455.97 -112.208 1462.07 -114.941C1462.83 -115.29 1463.61 -115.609 1464.37 -115.943C1465.92 -116.581 1467.49 -117.189 1469.07 -117.75C1470.65 -118.312 1472.25 -118.844 1473.87 -119.33C1486.78 -123.278 1500.66 -125.024 1514.33 -126.163C1515.18 -126.239 1516.03 -126.299 1516.88 -126.375C1518.59 -126.512 1520.29 -126.633 1521.98 -126.755C1526.45 -127.074 1530.96 -127.393 1535.46 -127.62C1539.97 -127.848 1544.46 -128 1548.96 -128C1556.83 -128 1564.66 -127.575 1572.42 -126.345C1573.53 -126.163 1574.63 -125.98 1575.74 -125.768C1593.41 -122.442 1610.79 -114.258 1621.97 -100.015C1624.39 -103.705 1627.6 -106.499 1631.3 -108.64C1632.77 -109.49 1634.33 -110.234 1635.94 -110.902C1636.74 -111.236 1637.57 -111.54 1638.4 -111.828C1645.07 -114.121 1652.51 -115.093 1659.48 -115.761C1677.95 -117.523 1696.59 -119.041 1715.23 -119.527C1739.2 -120.15 1763.15 -119.087 1786.77 -114.683C1801.16 -111.995 1819.66 -111.175 1830.5 -99.8172C1835.37 -94.7 1837.29 -89.2639 1836.97 -83.9948L1836.78 -83.8126Z" fill="white"/>
<defs>
<clipPath id="clip0_7_2">
<rect width="1447" height="900" fill="white" transform="translate(-7)"/>
</clipPath>
</defs>
</svg>
